<svg width="500" height="500" viewBox="0 0 500 500" fill="none" xmlns="http://www.w3.org/2000/svg">
<path d="M188.813 209.047C188.813 201.175 179.372 197.237 173.861 202.811L131.606 245.54C126.102 251.107 130.01 260.607 137.804 260.607H180.059C184.894 260.607 188.813 256.654 188.813 251.777V209.047Z" fill="white"/>
<path d="M138.517 319.019C130.723 319.019 126.815 328.52 132.319 334.086L174.183 376.42C179.695 381.994 189.135 378.057 189.135 370.184V327.85C189.135 322.973 185.216 319.019 180.381 319.019H138.517Z" fill="white"/>
<path d="M267.929 306.819C267.929 311.696 264.009 315.65 259.174 315.65H201.982C197.147 315.65 193.228 311.696 193.228 306.819V272.086C193.228 267.209 197.147 263.255 201.982 263.255H259.174C264.009 263.255 267.929 267.209 267.929 272.086V306.819Z" fill="white"/>
<path d="M311.7 290.136C311.7 298.008 321.14 301.946 326.652 296.372L368.217 254.34C373.721 248.774 369.813 239.273 362.019 239.273H320.454C315.619 239.273 311.7 243.227 311.7 248.104V290.136Z" fill="white"/>
<path d="M362.196 180.861C369.99 180.861 373.898 171.361 368.394 165.795L326.648 123.58C321.137 118.006 311.696 121.943 311.696 129.816V172.031C311.696 176.908 315.615 180.861 320.45 180.861H362.196Z" fill="white"/>
<path d="M232.665 192.611C232.665 187.734 236.584 183.781 241.419 183.781H299.12C303.955 183.781 307.874 187.734 307.874 192.611V227.345C307.874 232.222 303.955 236.175 299.12 236.175H241.419C236.584 236.175 232.665 232.222 232.665 227.345V192.611Z" fill="white"/>
</svg>
