<svg width="325" height="69" viewBox="0 0 325 69" fill="none" xmlns="http://www.w3.org/2000/svg">
<path d="M24.6208 14.086H15.7378V22.9689H24.6208V14.086Z" fill="#171717"/>
<path d="M42.1181 12.0586H29.1803V24.9964H42.1181V12.0586Z" fill="#171717"/>
<path d="M56.1252 13.5214H46.1131V23.5336H56.1252V13.5214Z" fill="#171717"/>
<path d="M9.41872 29.288H0V38.7068H9.41872V29.288Z" fill="#171717"/>
<path d="M36.9035 32.7432H34.395V35.2516H36.9035V32.7432Z" fill="#171717"/>
<path d="M57.6179 27.4986H44.6204V40.4962H57.6179V27.4986Z" fill="#171717"/>
<path d="M21.6415 48.0051H18.717V50.9296H21.6415V48.0051Z" fill="#171717"/>
<path d="M43.1242 41.9924H28.1743V56.9423H43.1242V41.9924Z" fill="#171717"/>
<rect x="12.5176" y="26.7295" width="15.1434" height="15.1434" fill="#171717"/>
<rect x="1.75586" y="46.6543" width="7.57169" height="7.57169" fill="#171717"/>
<rect x="14.5059" y="45.0615" width="10.7598" height="10.7598" fill="#171717"/>
<rect x="31.6426" y="29.918" width="8.36871" height="8.36871" fill="#171717"/>
<path d="M109.196 54.7798C111.206 54.7798 113.056 54.46 114.746 53.8205C116.436 53.1354 117.966 52.1762 119.337 50.9429C120.707 49.7096 121.895 48.2479 122.9 46.5579C123.95 44.8678 124.818 42.9951 125.503 40.9396L128.929 42.858C127.833 46.0098 126.302 48.7732 124.338 51.1484C122.42 53.5236 120.113 55.3736 117.418 56.6982C114.769 58.0228 111.731 58.6852 108.306 58.6852C105.245 58.6852 102.391 58.1599 99.7412 57.1093C97.092 56.0587 94.7624 54.5514 92.7526 52.5873C90.7429 50.6231 89.167 48.2479 88.0251 45.4616C86.9288 42.6753 86.3807 39.5464 86.3807 36.075C86.3807 33.0146 86.7918 30.1141 87.614 27.3735C88.4818 24.5872 89.6923 22.0521 91.2453 19.7683C92.7983 17.4844 94.6482 15.5203 96.7951 13.8759C98.9876 12.2315 101.386 10.9526 103.989 10.039C106.638 9.12549 109.47 8.66872 112.485 8.66872C114.678 8.66872 116.642 8.91994 118.378 9.42239C120.113 9.92484 121.598 10.6785 122.831 11.6834C124.11 12.6883 125.161 13.8759 125.983 15.2462C126.851 16.6165 127.513 18.1696 127.97 19.9053L125.64 19.3572L128.518 9.35388H132.355L129.82 23.8107H125.64C125.275 21.6639 124.59 19.7454 123.585 18.0554C122.58 16.3196 121.232 14.9722 119.542 14.0129C117.852 13.0537 115.774 12.5741 113.307 12.5741C111.206 12.5741 109.242 12.9852 107.415 13.8074C105.634 14.6296 104.012 15.8172 102.55 17.3702C101.089 18.8776 99.8326 20.6818 98.782 22.7829C97.7315 24.8841 96.9093 27.2136 96.3155 29.7715C95.7673 32.3295 95.4933 35.0473 95.4933 37.9249C95.4933 40.4828 95.7902 42.8124 96.384 44.9135C97.0235 46.969 97.9142 48.7504 99.0561 50.2577C100.244 51.7194 101.683 52.8385 103.373 53.615C105.108 54.3915 107.05 54.7798 109.196 54.7798ZM133.228 58L141.039 13.2593C141.176 12.6198 141.108 12.1402 140.834 11.8204C140.559 11.5007 140.103 11.2266 139.463 10.9983C138.824 10.7699 138.002 10.5872 136.997 10.4501L136.243 10.3131L136.791 7.22989H150.289L141.45 58H133.228ZM164.54 47.9282C164.403 48.659 164.266 49.3213 164.129 49.9152C164.037 50.509 163.969 51.0342 163.923 51.491C163.878 51.9021 163.855 52.2447 163.855 52.5187C163.855 53.2039 164.015 53.7064 164.334 54.0261C164.7 54.3458 165.248 54.5057 165.979 54.5057C166.618 54.5057 167.235 54.4143 167.829 54.2316C168.422 54.0489 168.971 53.8434 169.473 53.615C169.976 53.3866 170.341 53.2039 170.569 53.0669L169.884 56.4241C169.427 56.7439 168.834 57.0865 168.103 57.4519C167.418 57.8173 166.618 58.0914 165.705 58.2741C164.837 58.5024 163.9 58.6166 162.896 58.6166C161.525 58.6166 160.292 58.3883 159.196 57.9315C158.145 57.429 157.3 56.721 156.661 55.8075C156.067 54.8483 155.77 53.6378 155.77 52.1762C155.77 51.6737 155.793 51.1713 155.838 50.6688C155.884 50.1207 155.953 49.4812 156.044 48.7504C156.181 48.0196 156.364 47.1517 156.592 46.1468L158.648 35.3213C158.83 34.3164 158.967 33.4486 159.059 32.7177C159.196 31.9412 159.264 31.2332 159.264 30.5937C159.264 29.4518 158.99 28.5383 158.442 27.8531C157.894 27.1223 156.958 26.7569 155.633 26.7569C154.308 26.7569 152.984 27.1908 151.659 28.0587C150.38 28.9265 149.101 30.2055 147.822 31.8955C146.543 33.5856 145.219 35.7096 143.848 38.2675L142.546 36.1435C144.099 33.2202 145.675 30.7308 147.274 28.6753C148.918 26.5741 150.677 24.9754 152.55 23.8792C154.422 22.7373 156.524 22.1663 158.853 22.1663C160.68 22.1663 162.233 22.5089 163.512 23.194C164.837 23.8335 165.819 24.7699 166.458 26.0032C167.144 27.1908 167.486 28.6068 167.486 30.2512C167.486 30.982 167.44 31.8042 167.349 32.7177C167.258 33.5856 167.098 34.5905 166.869 35.7324L164.54 47.9282ZM203.468 31.69L200.727 33.814C200.362 32.1696 199.814 30.7536 199.083 29.566C198.352 28.3784 197.462 27.4877 196.411 26.8939C195.36 26.2544 194.127 25.9347 192.711 25.9347C191.295 25.9347 189.97 26.3229 188.737 27.0994C187.55 27.8303 186.476 28.8808 185.517 30.2512C184.558 31.5758 183.736 33.0831 183.05 34.7732C182.365 36.4632 181.84 38.2675 181.475 40.1859C181.109 42.1044 180.926 44 180.926 45.8727C180.926 47.8368 181.132 49.4584 181.543 50.7373C181.954 52.0163 182.548 52.9755 183.324 53.615C184.101 54.2545 185.037 54.5742 186.134 54.5742C187.641 54.5742 189.011 54.0718 190.245 53.0669C191.478 52.0163 192.688 50.5546 193.876 48.6819C195.063 46.8091 196.274 44.6166 197.507 42.1044L199.357 43.8173C197.804 46.8776 196.297 49.5269 194.835 51.7651C193.419 53.9576 191.843 55.6705 190.108 56.9037C188.417 58.137 186.385 58.7537 184.01 58.7537C181.726 58.7537 179.693 58.2284 177.912 57.1778C176.176 56.1272 174.806 54.5971 173.801 52.5873C172.842 50.5775 172.362 48.0881 172.362 45.1191C172.362 42.7895 172.659 40.5057 173.253 38.2675C173.846 36.0293 174.691 33.951 175.788 32.0326C176.93 30.0684 178.3 28.3556 179.899 26.8939C181.543 25.3865 183.37 24.2218 185.38 23.3996C187.435 22.5774 189.674 22.1663 192.094 22.1663C194.196 22.1663 196 22.5774 197.507 23.3996C199.06 24.2218 200.316 25.3637 201.276 26.8254C202.235 28.2414 202.966 29.8629 203.468 31.69ZM207.922 22.5774L203.468 47.6541C203.377 48.4306 203.263 49.1386 203.125 49.7781C203.034 50.3719 202.966 50.8972 202.92 51.354C202.874 51.8108 202.851 52.199 202.851 52.5187C202.851 53.2039 203.034 53.7064 203.4 54.0261C203.765 54.3458 204.29 54.5057 204.975 54.5057C205.935 54.5057 206.848 54.323 207.716 53.9576C208.584 53.5465 209.223 53.2496 209.634 53.0669L208.949 56.4241C208.493 56.7439 207.899 57.0865 207.168 57.4519C206.483 57.7716 205.706 58.0457 204.838 58.2741C204.016 58.5024 203.08 58.6166 202.029 58.6166C200.705 58.6166 199.517 58.3654 198.466 57.863C197.416 57.3605 196.594 56.6297 196 55.6705C195.452 54.6656 195.178 53.4323 195.178 51.9706C195.178 51.5139 195.223 51.0342 195.315 50.5318C195.406 49.9837 195.543 49.2985 195.726 48.4763L194.972 49.7096L198.878 27.5105L199.494 27.305L203.057 22.5774H207.922ZM237.006 45.0505C237.326 44.0913 237.577 43.1093 237.76 42.1044C237.942 41.0995 238.079 40.1174 238.171 39.1582C238.262 38.199 238.308 37.2626 238.308 36.349C238.308 34.1109 237.988 32.2153 237.349 30.6622C236.755 29.0636 235.887 27.8531 234.745 27.0309C233.603 26.2087 232.233 25.7976 230.634 25.7976C229.401 25.7976 228.259 26.0717 227.208 26.6198C226.203 27.168 225.29 27.8988 224.468 28.8123C223.645 29.7259 222.937 30.7993 222.344 32.0326C221.75 33.2658 221.27 34.5676 220.905 35.938C220.631 36.8515 220.379 37.8107 220.151 38.8156C219.968 39.8205 219.831 40.8026 219.74 41.7618C219.649 42.721 219.603 43.6574 219.603 44.5709C219.603 46.8091 219.9 48.7275 220.494 50.3262C221.133 51.8793 222.024 53.0669 223.166 53.8891C224.308 54.7112 225.678 55.1223 227.277 55.1223C228.51 55.1223 229.629 54.8711 230.634 54.3687C231.685 53.8205 232.621 53.0897 233.443 52.1762C234.265 51.2169 234.973 50.1435 235.567 48.9559C236.161 47.7227 236.641 46.4209 237.006 45.0505ZM211.039 42.3784C211.039 40.0946 211.335 37.9477 211.929 35.938C212.569 33.8825 213.459 32.0097 214.601 30.3197C215.789 28.6296 217.182 27.1908 218.781 26.0032C220.379 24.7699 222.161 23.8335 224.125 23.194C226.135 22.5089 228.259 22.1663 230.497 22.1663C233.74 22.1663 236.595 22.8515 239.061 24.2218C241.528 25.5464 243.446 27.442 244.817 29.9086C246.187 32.3751 246.872 35.2756 246.872 38.6101C246.872 40.8939 246.552 43.0636 245.913 45.1191C245.319 47.1288 244.451 48.9788 243.309 50.6688C242.167 52.3589 240.774 53.8205 239.13 55.0538C237.531 56.2414 235.727 57.155 233.717 57.7945C231.753 58.4339 229.652 58.7537 227.414 58.7537C224.216 58.7537 221.384 58.0914 218.918 56.7667C216.451 55.4421 214.51 53.5465 213.094 51.0799C211.724 48.5677 211.039 45.6672 211.039 42.3784ZM261.105 58.7537C259.232 58.7537 257.565 58.4568 256.103 57.863C254.641 57.2692 253.499 56.3556 252.677 55.1223C251.855 53.8434 251.444 52.199 251.444 50.1892C251.444 49.5954 251.467 48.9559 251.513 48.2708C251.604 47.5399 251.695 46.7863 251.787 46.0098C251.924 45.2332 252.038 44.4796 252.129 43.7487L255.486 24.0847L257.405 22.8515H272.547L271.862 26.2772H249.594L250.211 23.194H250.485C251.764 23.194 252.86 23.0798 253.774 22.8515C254.687 22.6231 255.441 22.212 256.035 21.6182C256.674 21.0244 257.131 20.2022 257.405 19.1516L258.638 13.5333H265.627L260.283 44.2969C260.146 45.1191 260.008 45.9412 259.871 46.7634C259.78 47.5399 259.689 48.2708 259.597 48.9559C259.552 49.6411 259.529 50.2349 259.529 50.7373C259.529 52.199 259.849 53.2496 260.488 53.8891C261.128 54.4829 262.087 54.7798 263.366 54.7798C264.097 54.7798 264.805 54.6884 265.49 54.5057C266.175 54.323 266.792 54.1174 267.34 53.8891C267.933 53.615 268.39 53.3866 268.71 53.2039L268.093 56.9037C267.362 57.3148 266.403 57.7259 265.216 58.137C264.074 58.5481 262.703 58.7537 261.105 58.7537ZM274.459 52.1762C274.459 51.6737 274.482 51.1484 274.527 50.6003C274.573 50.0522 274.664 49.4355 274.801 48.7504C274.938 48.0196 275.098 47.1517 275.281 46.1468L278.364 28.9494C278.456 28.3099 278.364 27.8074 278.09 27.442C277.816 27.0766 277.359 26.8025 276.72 26.6198C276.08 26.3914 275.258 26.2087 274.253 26.0717L273.431 25.9347L273.979 22.8515H287.614L283.16 47.9282C283.023 48.659 282.909 49.3213 282.818 49.9152C282.726 50.4633 282.658 50.9657 282.612 51.4225C282.567 51.8336 282.544 52.199 282.544 52.5187C282.544 53.2039 282.726 53.7064 283.092 54.0261C283.457 54.3458 284.005 54.5057 284.736 54.5057C285.33 54.5057 285.924 54.4143 286.518 54.2316C287.157 54.0489 287.705 53.8434 288.162 53.615C288.664 53.3866 289.053 53.2039 289.327 53.0669L288.642 56.4241C288.185 56.7439 287.591 57.0865 286.86 57.4519C286.175 57.7716 285.399 58.0457 284.531 58.2741C283.663 58.5024 282.726 58.6166 281.722 58.6166C280.306 58.6166 279.049 58.3883 277.953 57.9315C276.857 57.429 275.989 56.6982 275.35 55.739C274.756 54.7798 274.459 53.5922 274.459 52.1762ZM279.461 11.0668C279.461 9.65078 279.94 8.53169 280.899 7.7095C281.859 6.84164 283.092 6.4077 284.599 6.4077C286.107 6.4077 287.317 6.8188 288.231 7.64099C289.144 8.46317 289.601 9.58226 289.601 10.9983C289.601 12.4142 289.121 13.5562 288.162 14.424C287.248 15.2919 286.015 15.7258 284.462 15.7258C283 15.7258 281.79 15.3147 280.831 14.4926C279.917 13.6247 279.461 12.4828 279.461 11.0668ZM308.337 54.8483C310.255 54.8483 311.877 54.4143 313.201 53.5465C314.572 52.6786 315.691 51.628 316.559 50.3948C317.472 49.1158 318.18 47.9054 318.683 46.7634L321.766 48.8189C320.761 51.0571 319.528 52.9298 318.066 54.4372C316.65 55.8989 315.005 56.9951 313.133 57.7259C311.306 58.4111 309.273 58.7537 307.035 58.7537C304.842 58.7537 302.787 58.4111 300.868 57.7259C298.95 57.0408 297.237 56.013 295.73 54.6427C294.268 53.2724 293.126 51.6052 292.304 49.6411C291.482 47.6313 291.071 45.3018 291.071 42.6525C291.071 39.7748 291.55 37.0799 292.51 34.5676C293.514 32.0554 294.93 29.8857 296.757 28.0587C298.63 26.1859 300.8 24.7471 303.266 23.7422C305.779 22.6916 308.542 22.1663 311.557 22.1663C313.795 22.1663 315.713 22.4175 317.312 22.92C318.957 23.3767 320.327 23.9477 321.423 24.6329C322.519 25.318 323.342 25.9575 323.89 26.5513L322.519 34.4306H315.599L316.97 26.6198C317.426 26.6198 317.815 26.7569 318.134 27.0309C318.454 27.2593 318.705 27.5562 318.888 27.9216C319.071 28.287 319.162 28.6753 319.162 29.0864C319.162 29.4975 319.048 29.9086 318.82 30.3197C318.454 29.3605 317.929 28.5611 317.244 27.9216C316.559 27.2365 315.736 26.7112 314.777 26.3458C313.864 25.9803 312.836 25.7976 311.694 25.7976C310.232 25.7976 308.862 26.1174 307.583 26.7569C306.35 27.3507 305.231 28.2185 304.226 29.3605C303.266 30.4567 302.444 31.7357 301.759 33.1973C301.074 34.659 300.549 36.2805 300.183 38.0619C299.818 39.7977 299.635 41.6019 299.635 43.4747C299.635 45.8499 299.978 47.8825 300.663 49.5726C301.348 51.2626 302.353 52.5644 303.678 53.478C305.002 54.3915 306.555 54.8483 308.337 54.8483Z" fill="#171717"/>
</svg>
