<svg width="325" height="70" viewBox="0 0 325 70" fill="none" xmlns="http://www.w3.org/2000/svg">
<path d="M24.6208 14.586H15.7378V23.4689H24.6208V14.586Z" fill="white"/>
<path d="M42.1181 12.5586H29.1803V25.4964H42.1181V12.5586Z" fill="white"/>
<path d="M56.1252 14.0214H46.1131V24.0336H56.1252V14.0214Z" fill="white"/>
<path d="M9.41872 29.788H0V39.2068H9.41872V29.788Z" fill="white"/>
<path d="M36.9035 33.2432H34.395V35.7516H36.9035V33.2432Z" fill="white"/>
<path d="M57.6179 27.9986H44.6204V40.9962H57.6179V27.9986Z" fill="white"/>
<path d="M21.6415 48.5051H18.717V51.4296H21.6415V48.5051Z" fill="white"/>
<path d="M43.1242 42.4924H28.1743V57.4423H43.1242V42.4924Z" fill="white"/>
<rect x="12.5176" y="27.2295" width="15.1434" height="15.1434" fill="white"/>
<rect x="1.75586" y="47.1543" width="7.57169" height="7.57169" fill="white"/>
<rect x="14.5059" y="45.5615" width="10.7598" height="10.7598" fill="white"/>
<rect x="31.6426" y="30.418" width="8.36871" height="8.36871" fill="white"/>
<path d="M109.196 55.2798C111.206 55.2798 113.056 54.96 114.746 54.3205C116.436 53.6354 117.966 52.6762 119.337 51.4429C120.707 50.2096 121.895 48.7479 122.9 47.0579C123.95 45.3678 124.818 43.4951 125.503 41.4396L128.929 43.358C127.833 46.5098 126.302 49.2732 124.338 51.6484C122.42 54.0236 120.113 55.8736 117.418 57.1982C114.769 58.5228 111.731 59.1852 108.306 59.1852C105.245 59.1852 102.391 58.6599 99.7412 57.6093C97.092 56.5587 94.7624 55.0514 92.7526 53.0873C90.7429 51.1231 89.167 48.7479 88.0251 45.9616C86.9288 43.1753 86.3807 40.0464 86.3807 36.575C86.3807 33.5146 86.7918 30.6141 87.614 27.8735C88.4818 25.0872 89.6923 22.5521 91.2453 20.2683C92.7983 17.9844 94.6482 16.0203 96.7951 14.3759C98.9876 12.7315 101.386 11.4526 103.989 10.539C106.638 9.62549 109.47 9.16872 112.485 9.16872C114.678 9.16872 116.642 9.41994 118.378 9.92239C120.113 10.4248 121.598 11.1785 122.831 12.1834C124.11 13.1883 125.161 14.3759 125.983 15.7462C126.851 17.1165 127.513 18.6696 127.97 20.4053L125.64 19.8572L128.518 9.85388H132.355L129.82 24.3107H125.64C125.275 22.1639 124.59 20.2454 123.585 18.5554C122.58 16.8196 121.232 15.4722 119.542 14.5129C117.852 13.5537 115.774 13.0741 113.307 13.0741C111.206 13.0741 109.242 13.4852 107.415 14.3074C105.634 15.1296 104.012 16.3172 102.55 17.8702C101.089 19.3776 99.8326 21.1818 98.782 23.2829C97.7315 25.3841 96.9093 27.7136 96.3155 30.2715C95.7673 32.8295 95.4933 35.5473 95.4933 38.4249C95.4933 40.9828 95.7902 43.3124 96.384 45.4135C97.0235 47.469 97.9142 49.2504 99.0561 50.7577C100.244 52.2194 101.683 53.3385 103.373 54.115C105.108 54.8915 107.05 55.2798 109.196 55.2798ZM133.228 58.5L141.039 13.7593C141.176 13.1198 141.108 12.6402 140.834 12.3204C140.559 12.0007 140.103 11.7266 139.463 11.4983C138.824 11.2699 138.002 11.0872 136.997 10.9501L136.243 10.8131L136.791 7.72989H150.289L141.45 58.5H133.228ZM164.54 48.4282C164.403 49.159 164.266 49.8213 164.129 50.4152C164.037 51.009 163.969 51.5342 163.923 51.991C163.878 52.4021 163.855 52.7447 163.855 53.0187C163.855 53.7039 164.015 54.2064 164.334 54.5261C164.7 54.8458 165.248 55.0057 165.979 55.0057C166.618 55.0057 167.235 54.9143 167.829 54.7316C168.422 54.5489 168.971 54.3434 169.473 54.115C169.976 53.8866 170.341 53.7039 170.569 53.5669L169.884 56.9241C169.427 57.2439 168.834 57.5865 168.103 57.9519C167.418 58.3173 166.618 58.5914 165.705 58.7741C164.837 59.0024 163.9 59.1166 162.896 59.1166C161.525 59.1166 160.292 58.8883 159.196 58.4315C158.145 57.929 157.3 57.221 156.661 56.3075C156.067 55.3483 155.77 54.1378 155.77 52.6762C155.77 52.1737 155.793 51.6713 155.838 51.1688C155.884 50.6207 155.953 49.9812 156.044 49.2504C156.181 48.5196 156.364 47.6517 156.592 46.6468L158.648 35.8213C158.83 34.8164 158.967 33.9486 159.059 33.2177C159.196 32.4412 159.264 31.7332 159.264 31.0937C159.264 29.9518 158.99 29.0383 158.442 28.3531C157.894 27.6223 156.958 27.2569 155.633 27.2569C154.308 27.2569 152.984 27.6908 151.659 28.5587C150.38 29.4265 149.101 30.7055 147.822 32.3955C146.543 34.0856 145.219 36.2096 143.848 38.7675L142.546 36.6435C144.099 33.7202 145.675 31.2308 147.274 29.1753C148.918 27.0741 150.677 25.4754 152.55 24.3792C154.422 23.2373 156.524 22.6663 158.853 22.6663C160.68 22.6663 162.233 23.0089 163.512 23.694C164.837 24.3335 165.819 25.2699 166.458 26.5032C167.144 27.6908 167.486 29.1068 167.486 30.7512C167.486 31.482 167.44 32.3042 167.349 33.2177C167.258 34.0856 167.098 35.0905 166.869 36.2324L164.54 48.4282ZM203.468 32.19L200.727 34.314C200.362 32.6696 199.814 31.2536 199.083 30.066C198.352 28.8784 197.462 27.9877 196.411 27.3939C195.36 26.7544 194.127 26.4347 192.711 26.4347C191.295 26.4347 189.97 26.8229 188.737 27.5994C187.55 28.3303 186.476 29.3808 185.517 30.7512C184.558 32.0758 183.736 33.5831 183.05 35.2732C182.365 36.9632 181.84 38.7675 181.475 40.6859C181.109 42.6044 180.926 44.5 180.926 46.3727C180.926 48.3368 181.132 49.9584 181.543 51.2373C181.954 52.5163 182.548 53.4755 183.324 54.115C184.101 54.7545 185.037 55.0742 186.134 55.0742C187.641 55.0742 189.011 54.5718 190.245 53.5669C191.478 52.5163 192.688 51.0546 193.876 49.1819C195.063 47.3091 196.274 45.1166 197.507 42.6044L199.357 44.3173C197.804 47.3776 196.297 50.0269 194.835 52.2651C193.419 54.4576 191.843 56.1705 190.108 57.4037C188.417 58.637 186.385 59.2537 184.01 59.2537C181.726 59.2537 179.693 58.7284 177.912 57.6778C176.176 56.6272 174.806 55.0971 173.801 53.0873C172.842 51.0775 172.362 48.5881 172.362 45.6191C172.362 43.2895 172.659 41.0057 173.253 38.7675C173.846 36.5293 174.691 34.451 175.788 32.5326C176.93 30.5684 178.3 28.8556 179.899 27.3939C181.543 25.8865 183.37 24.7218 185.38 23.8996C187.435 23.0774 189.674 22.6663 192.094 22.6663C194.196 22.6663 196 23.0774 197.507 23.8996C199.06 24.7218 200.316 25.8637 201.276 27.3254C202.235 28.7414 202.966 30.3629 203.468 32.19ZM207.922 23.0774L203.468 48.1541C203.377 48.9306 203.263 49.6386 203.125 50.2781C203.034 50.8719 202.966 51.3972 202.92 51.854C202.874 52.3108 202.851 52.699 202.851 53.0187C202.851 53.7039 203.034 54.2064 203.4 54.5261C203.765 54.8458 204.29 55.0057 204.975 55.0057C205.935 55.0057 206.848 54.823 207.716 54.4576C208.584 54.0465 209.223 53.7496 209.634 53.5669L208.949 56.9241C208.493 57.2439 207.899 57.5865 207.168 57.9519C206.483 58.2716 205.706 58.5457 204.838 58.7741C204.016 59.0024 203.08 59.1166 202.029 59.1166C200.705 59.1166 199.517 58.8654 198.466 58.363C197.416 57.8605 196.594 57.1297 196 56.1705C195.452 55.1656 195.178 53.9323 195.178 52.4706C195.178 52.0139 195.223 51.5342 195.315 51.0318C195.406 50.4837 195.543 49.7985 195.726 48.9763L194.972 50.2096L198.878 28.0105L199.494 27.805L203.057 23.0774H207.922ZM237.006 45.5505C237.326 44.5913 237.577 43.6093 237.76 42.6044C237.942 41.5995 238.079 40.6174 238.171 39.6582C238.262 38.699 238.308 37.7626 238.308 36.849C238.308 34.6109 237.988 32.7153 237.349 31.1622C236.755 29.5636 235.887 28.3531 234.745 27.5309C233.603 26.7087 232.233 26.2976 230.634 26.2976C229.401 26.2976 228.259 26.5717 227.208 27.1198C226.203 27.668 225.29 28.3988 224.468 29.3123C223.645 30.2259 222.937 31.2993 222.344 32.5326C221.75 33.7658 221.27 35.0676 220.905 36.438C220.631 37.3515 220.379 38.3107 220.151 39.3156C219.968 40.3205 219.831 41.3026 219.74 42.2618C219.649 43.221 219.603 44.1574 219.603 45.0709C219.603 47.3091 219.9 49.2275 220.494 50.8262C221.133 52.3793 222.024 53.5669 223.166 54.3891C224.308 55.2112 225.678 55.6223 227.277 55.6223C228.51 55.6223 229.629 55.3711 230.634 54.8687C231.685 54.3205 232.621 53.5897 233.443 52.6762C234.265 51.7169 234.973 50.6435 235.567 49.4559C236.161 48.2227 236.641 46.9209 237.006 45.5505ZM211.039 42.8784C211.039 40.5946 211.335 38.4477 211.929 36.438C212.569 34.3825 213.459 32.5097 214.601 30.8197C215.789 29.1296 217.182 27.6908 218.781 26.5032C220.379 25.2699 222.161 24.3335 224.125 23.694C226.135 23.0089 228.259 22.6663 230.497 22.6663C233.74 22.6663 236.595 23.3515 239.061 24.7218C241.528 26.0464 243.446 27.942 244.817 30.4086C246.187 32.8751 246.872 35.7756 246.872 39.1101C246.872 41.3939 246.552 43.5636 245.913 45.6191C245.319 47.6288 244.451 49.4788 243.309 51.1688C242.167 52.8589 240.774 54.3205 239.13 55.5538C237.531 56.7414 235.727 57.655 233.717 58.2945C231.753 58.9339 229.652 59.2537 227.414 59.2537C224.216 59.2537 221.384 58.5914 218.918 57.2667C216.451 55.9421 214.51 54.0465 213.094 51.5799C211.724 49.0677 211.039 46.1672 211.039 42.8784ZM261.105 59.2537C259.232 59.2537 257.565 58.9568 256.103 58.363C254.641 57.7692 253.499 56.8556 252.677 55.6223C251.855 54.3434 251.444 52.699 251.444 50.6892C251.444 50.0954 251.467 49.4559 251.513 48.7708C251.604 48.0399 251.695 47.2863 251.787 46.5098C251.924 45.7332 252.038 44.9796 252.129 44.2487L255.486 24.5847L257.405 23.3515H272.547L271.862 26.7772H249.594L250.211 23.694H250.485C251.764 23.694 252.86 23.5798 253.774 23.3515C254.687 23.1231 255.441 22.712 256.035 22.1182C256.674 21.5244 257.131 20.7022 257.405 19.6516L258.638 14.0333H265.627L260.283 44.7969C260.146 45.6191 260.008 46.4412 259.871 47.2634C259.78 48.0399 259.689 48.7708 259.597 49.4559C259.552 50.1411 259.529 50.7349 259.529 51.2373C259.529 52.699 259.849 53.7496 260.488 54.3891C261.128 54.9829 262.087 55.2798 263.366 55.2798C264.097 55.2798 264.805 55.1884 265.49 55.0057C266.175 54.823 266.792 54.6174 267.34 54.3891C267.933 54.115 268.39 53.8866 268.71 53.7039L268.093 57.4037C267.362 57.8148 266.403 58.2259 265.216 58.637C264.074 59.0481 262.703 59.2537 261.105 59.2537ZM274.459 52.6762C274.459 52.1737 274.482 51.6484 274.527 51.1003C274.573 50.5522 274.664 49.9355 274.801 49.2504C274.938 48.5196 275.098 47.6517 275.281 46.6468L278.364 29.4494C278.456 28.8099 278.364 28.3074 278.09 27.942C277.816 27.5766 277.359 27.3025 276.72 27.1198C276.08 26.8914 275.258 26.7087 274.253 26.5717L273.431 26.4347L273.979 23.3515H287.614L283.16 48.4282C283.023 49.159 282.909 49.8213 282.818 50.4152C282.726 50.9633 282.658 51.4657 282.612 51.9225C282.567 52.3336 282.544 52.699 282.544 53.0187C282.544 53.7039 282.726 54.2064 283.092 54.5261C283.457 54.8458 284.005 55.0057 284.736 55.0057C285.33 55.0057 285.924 54.9143 286.518 54.7316C287.157 54.5489 287.705 54.3434 288.162 54.115C288.664 53.8866 289.053 53.7039 289.327 53.5669L288.642 56.9241C288.185 57.2439 287.591 57.5865 286.86 57.9519C286.175 58.2716 285.399 58.5457 284.531 58.7741C283.663 59.0024 282.726 59.1166 281.722 59.1166C280.306 59.1166 279.049 58.8883 277.953 58.4315C276.857 57.929 275.989 57.1982 275.35 56.239C274.756 55.2798 274.459 54.0922 274.459 52.6762ZM279.461 11.5668C279.461 10.1508 279.94 9.03169 280.899 8.2095C281.859 7.34164 283.092 6.9077 284.599 6.9077C286.107 6.9077 287.317 7.3188 288.231 8.14099C289.144 8.96317 289.601 10.0823 289.601 11.4983C289.601 12.9142 289.121 14.0562 288.162 14.924C287.248 15.7919 286.015 16.2258 284.462 16.2258C283 16.2258 281.79 15.8147 280.831 14.9926C279.917 14.1247 279.461 12.9828 279.461 11.5668ZM308.337 55.3483C310.255 55.3483 311.877 54.9143 313.201 54.0465C314.572 53.1786 315.691 52.128 316.559 50.8948C317.472 49.6158 318.18 48.4054 318.683 47.2634L321.766 49.3189C320.761 51.5571 319.528 53.4298 318.066 54.9372C316.65 56.3989 315.005 57.4951 313.133 58.2259C311.306 58.9111 309.273 59.2537 307.035 59.2537C304.842 59.2537 302.787 58.9111 300.868 58.2259C298.95 57.5408 297.237 56.513 295.73 55.1427C294.268 53.7724 293.126 52.1052 292.304 50.1411C291.482 48.1313 291.071 45.8018 291.071 43.1525C291.071 40.2748 291.55 37.5799 292.51 35.0676C293.514 32.5554 294.93 30.3857 296.757 28.5587C298.63 26.6859 300.8 25.2471 303.266 24.2422C305.779 23.1916 308.542 22.6663 311.557 22.6663C313.795 22.6663 315.713 22.9175 317.312 23.42C318.957 23.8767 320.327 24.4477 321.423 25.1329C322.519 25.818 323.342 26.4575 323.89 27.0513L322.519 34.9306H315.599L316.97 27.1198C317.426 27.1198 317.815 27.2569 318.134 27.5309C318.454 27.7593 318.705 28.0562 318.888 28.4216C319.071 28.787 319.162 29.1753 319.162 29.5864C319.162 29.9975 319.048 30.4086 318.82 30.8197C318.454 29.8605 317.929 29.0611 317.244 28.4216C316.559 27.7365 315.736 27.2112 314.777 26.8458C313.864 26.4803 312.836 26.2976 311.694 26.2976C310.232 26.2976 308.862 26.6174 307.583 27.2569C306.35 27.8507 305.231 28.7185 304.226 29.8605C303.266 30.9567 302.444 32.2357 301.759 33.6973C301.074 35.159 300.549 36.7805 300.183 38.5619C299.818 40.2977 299.635 42.1019 299.635 43.9747C299.635 46.3499 299.978 48.3825 300.663 50.0726C301.348 51.7626 302.353 53.0644 303.678 53.978C305.002 54.8915 306.555 55.3483 308.337 55.3483Z" fill="white"/>
</svg>
